<?xml version="1.0" encoding="UTF-8"?>
<!-- This file is generated by pnpm run build:icons -->
<svg xmlns="http://www.w3.org/2000/svg" xmlns:xlink="http://www.w3.org/1999/xlink" width="0" height="0">
<defs>
<symbol viewBox="0 0 24 24" id="camp"><g fill="none" fill-rule="evenodd"><path d="M24 0v24H0V0zM12.593 23.258l-.011.002l-.071.035l-.02.004l-.014-.004l-.071-.035c-.01-.004-.019-.001-.024.005l-.004.01l-.017.428l.005.02l.01.013l.104.074l.015.004l.012-.004l.104-.074l.012-.016l.004-.017l-.017-.427c-.002-.01-.009-.017-.017-.018m.265-.113l-.013.002l-.185.093l-.01.01l-.003.011l.018.43l.005.012l.008.007l.201.093c.012.004.023 0 .029-.008l.004-.014l-.034-.614c-.003-.012-.01-.02-.02-.022m-.715.002a.023.023 0 0 0-.027.006l-.006.014l-.034.614c0 .012.007.02.017.024l.015-.002l.201-.093l.01-.008l.004-.011l.017-.43l-.003-.012l-.01-.01z"></path><path fill="currentColor" d="M14.824 4.567a1 1 0 0 0-1.648-1.133L12 5.144l-1.176-1.71a1 1 0 1 0-1.648 1.133l1.61 2.342L2.475 19H2a1 1 0 1 0 0 2h20a1 1 0 0 0 0-2h-.474L13.214 6.91zM15.986 19h3.113L12 8.674L4.901 19h3.114l3.155-4.557a1.01 1.01 0 0 1 1.66 0zm-5.539 0h3.106L12 16.757z"></path></g></symbol>
<symbol viewBox="0 0 256 256" id="command"><path fill="currentColor" d="M180 144h-20v-32h20a36 36 0 1 0-36-36v20h-32V76a36 36 0 1 0-36 36h20v32H76a36 36 0 1 0 36 36v-20h32v20a36 36 0 1 0 36-36m-20-68a20 20 0 1 1 20 20h-20ZM56 76a20 20 0 0 1 40 0v20H76a20 20 0 0 1-20-20m40 104a20 20 0 1 1-20-20h20Zm16-68h32v32h-32Zm68 88a20 20 0 0 1-20-20v-20h20a20 20 0 0 1 0 40"></path></symbol>
<symbol viewBox="0 0 32 32" id="user"><path fill="currentColor" d="M16 4a5 5 0 1 1-5 5a5 5 0 0 1 5-5m0-2a7 7 0 1 0 7 7a7 7 0 0 0-7-7m10 28h-2v-5a5 5 0 0 0-5-5h-6a5 5 0 0 0-5 5v5H6v-5a7 7 0 0 1 7-7h6a7 7 0 0 1 7 7z"></path></symbol>
</defs>
</svg>
