<?xml version="1.0" encoding="UTF-8"?>
<!-- This file is generated by pnpm run build:icons -->
<svg xmlns="http://www.w3.org/2000/svg" xmlns:xlink="http://www.w3.org/1999/xlink" width="0" height="0">
<defs>
<symbol viewBox="0 0 24 24" fill="none" id="home">
<path opacity="0.14" d="M3 19L12 7L21 19V21H16L12 15L8 21H3V19Z" fill="currentColor"></path>
<path d="M15 3L3 19V21H21V19L9 3M12 15L16 21H8L12 15Z" stroke="currentColor" stroke-width="2" stroke-linecap="round" stroke-linejoin="round"></path>
</symbol>
<symbol viewBox="0 0 24 24" fill="none" id="user">
<g opacity="0.14">
<path d="M12 11C14.2091 11 16 9.20914 16 7C16 4.79086 14.2091 3 12 3C9.79086 3 8 4.79086 8 7C8 9.20914 9.79086 11 12 11Z" fill="currentColor"></path>
<path d="M12 14C15.866 14 19 17.134 19 21H5C5 17.134 8.13401 14 12 14Z" fill="currentColor"></path>
</g>
<path d="M5 21C5 17.134 8.13401 14 12 14C15.866 14 19 17.134 19 21M16 7C16 9.20914 14.2091 11 12 11C9.79086 11 8 9.20914 8 7C8 4.79086 9.79086 3 12 3C14.2091 3 16 4.79086 16 7Z" stroke="currentColor" stroke-width="2" stroke-linecap="round" stroke-linejoin="round"></path>
</symbol>
</defs>
</svg>
